<?xml version="1.0" standalone="no"?>
<!DOCTYPE svg PUBLIC "-//W3C//DTD SVG 20010904//EN"
 "http://www.w3.org/TR/2001/REC-SVG-20010904/DTD/svg10.dtd">
<svg version="1.0" xmlns="http://www.w3.org/2000/svg"
 width="1000.000000pt" height="600.000000pt" viewBox="0 0 1000.000000 600.000000"
 preserveAspectRatio="xMidYMid meet">

<g transform="translate(0.000000,600.000000) scale(0.100000,-0.100000)"
fill="#000000" stroke="none">
<path d="M4810 5163 c-51 -9 -54 -11 -36 -38 23 -36 24 -399 0 -433 -14 -20
-14 -23 1 -28 17 -7 125 4 125 13 0 3 -8 15 -19 28 -15 21 -18 44 -19 157 -1
155 -11 159 110 -41 83 -136 113 -165 146 -144 15 9 18 38 22 225 4 163 8 219
19 232 19 23 11 27 -53 32 -59 4 -76 -6 -54 -33 9 -11 13 -49 13 -125 0 -59
-2 -108 -5 -108 -3 0 -41 60 -85 133 -86 142 -88 144 -165 130z"/>
<path d="M4431 5104 c-79 -19 -146 -36 -149 -39 -3 -3 3 -14 13 -25 9 -10 24
-45 31 -77 56 -234 65 -288 59 -331 l-7 -45 29 7 c15 3 87 19 158 34 l130 28
-1 58 c-2 78 -16 90 -54 44 -20 -24 -42 -38 -67 -44 -74 -15 -77 -14 -91 45
-16 66 -9 74 62 67 l49 -5 -6 51 c-8 66 -19 77 -55 56 -15 -8 -39 -18 -54 -22
-24 -5 -28 -3 -34 21 -3 16 -10 42 -14 60 -9 35 -10 34 60 49 50 11 52 11 79
2 42 -15 51 -5 37 41 -6 22 -16 45 -21 49 -6 5 -71 -5 -154 -24z"/>
<path d="M5320 5094 c-22 -49 -25 -74 -11 -74 5 0 26 7 47 16 33 14 47 14 91
4 29 -6 53 -14 53 -16 0 -3 -65 -79 -145 -171 -117 -132 -143 -168 -134 -179
6 -8 19 -14 28 -14 9 0 76 -15 149 -34 l133 -33 14 21 c19 31 37 94 30 106 -4
6 -17 4 -37 -6 -23 -12 -48 -15 -91 -11 -32 3 -61 7 -64 10 -2 3 55 74 129
157 139 159 158 185 142 199 -8 8 -280 71 -305 71 -5 0 -19 -21 -29 -46z"/>
<path d="M4113 5007 c-47 -17 -63 -36 -41 -48 10 -6 19 -28 23 -57 3 -26 13
-91 22 -145 8 -54 13 -100 10 -103 -8 -8 -177 195 -193 231 -8 19 -16 35 -19
35 -3 0 -34 -14 -70 -32 -69 -34 -80 -53 -41 -68 13 -4 88 -83 166 -174 79
-91 150 -166 159 -166 9 0 34 12 55 26 34 23 37 29 32 57 -3 18 -10 75 -16
127 -6 52 -15 124 -22 159 -6 35 -8 88 -5 117 6 60 1 63 -60 41z"/>
<path d="M5784 4995 c9 -34 -132 -386 -157 -393 -11 -3 -17 -12 -15 -24 2 -15
21 -27 67 -44 35 -13 68 -21 73 -18 6 4 7 20 4 36 -7 37 116 352 151 384 27
25 23 31 -51 63 -65 28 -80 28 -72 -4z"/>
<path d="M6051 4837 c-18 -6 -57 -32 -86 -59 -153 -140 -130 -360 44 -412 73
-21 88 -20 148 10 92 45 154 135 168 240 21 153 -123 269 -274 221z m138 -82
c68 -34 52 -128 -44 -257 -76 -104 -202 -65 -176 55 16 68 97 182 145 203 39
17 41 17 75 -1z"/>
<path d="M3636 4754 c-49 -38 -50 -40 -14 -58 21 -10 137 -153 138 -168 0 -7
-47 9 -223 76 l-68 25 -45 -41 c-46 -43 -56 -68 -26 -68 23 0 48 -27 160 -176
62 -81 92 -130 92 -148 0 -34 21 -34 71 2 46 32 48 46 12 64 -24 11 -173 192
-173 209 0 3 74 -22 165 -57 91 -35 172 -64 181 -64 23 0 54 19 54 33 0 7 -59
91 -130 187 -72 96 -130 182 -130 192 0 30 -17 28 -64 -8z"/>
<path d="M6497 4603 c-4 -3 -7 -16 -7 -27 0 -27 -255 -296 -280 -296 -36 0
-32 -22 11 -66 45 -46 69 -46 69 0 0 13 33 54 87 109 47 48 87 86 89 85 1 -2
-8 -57 -22 -123 -39 -196 -44 -236 -33 -256 5 -11 14 -19 19 -19 6 0 80 68
166 150 86 83 164 150 173 150 34 0 31 14 -10 56 -42 43 -59 48 -59 16 0 -10
-34 -51 -75 -92 -41 -41 -75 -72 -75 -68 0 4 9 51 19 105 39 199 39 189 -10
239 -44 45 -51 49 -62 37z"/>
<path d="M4739 4475 c-466 -78 -876 -362 -1112 -770 -147 -253 -217 -586 -187
-887 48 -489 329 -919 765 -1171 176 -103 424 -185 605 -202 36 -3 89 -8 118
-11 63 -6 270 12 368 32 445 91 871 405 1072 791 118 226 172 450 172 709 0
324 -93 618 -277 877 -116 163 -330 353 -510 454 -145 81 -385 160 -556 182
-105 15 -363 12 -458 -4z m541 -93 c295 -61 544 -196 761 -412 261 -261 396
-562 415 -930 22 -410 -117 -777 -404 -1072 -288 -296 -652 -448 -1073 -448
-172 0 -289 19 -454 74 -843 282 -1242 1191 -870 1983 200 426 599 725 1090
814 131 24 394 20 535 -9z"/>
<path d="M4925 4209 c-442 -60 -568 -100 -700 -221 -50 -46 -74 -79 -106 -144
-39 -77 -42 -91 -47 -182 -6 -126 16 -215 97 -395 80 -176 94 -231 94 -347 0
-106 -9 -141 -76 -305 -54 -132 -71 -212 -65 -304 7 -92 36 -151 153 -310 105
-142 134 -167 237 -202 173 -59 377 -23 543 96 126 89 212 209 350 484 120
242 138 267 319 461 116 124 179 215 215 309 89 232 81 445 -22 599 -18 26
-54 82 -80 124 -65 105 -173 204 -279 256 -138 68 -209 84 -398 87 -91 2 -196
-1 -235 -6z m412 -88 c242 -50 424 -215 440 -397 6 -68 -22 -210 -60 -303 -39
-96 -128 -228 -263 -386 -178 -210 -263 -326 -389 -537 -136 -227 -218 -317
-341 -375 -67 -32 -90 -38 -166 -41 -169 -8 -278 36 -327 133 -22 42 -26 63
-26 135 1 95 6 115 76 282 62 148 78 241 60 369 -12 95 -30 147 -110 330 -114
259 -105 429 30 573 116 125 263 173 684 225 128 16 293 12 392 -8z m553 -513
c29 -64 25 -78 -11 -42 -24 25 -29 36 -24 57 4 15 9 27 12 27 2 0 13 -19 23
-42z m-2 -113 c17 -24 32 -54 32 -67 0 -20 -5 -18 -45 22 -35 35 -43 50 -39
68 4 12 9 22 13 22 3 -1 21 -21 39 -45z m15 -181 l-9 -27 -47 55 c-53 62 -51
57 -37 94 l11 27 45 -61 c39 -53 45 -65 37 -88z m-71 -2 c48 -74 51 -84 35
-106 -13 -18 -15 -18 -40 -1 -33 21 -34 14 -5 -36 20 -36 20 -39 4 -64 l-17
-26 -36 27 -35 27 7 -24 c4 -13 13 -36 21 -50 11 -22 11 -29 -2 -48 -19 -27
-26 -27 -62 4 -42 35 -44 32 -15 -21 l26 -46 -21 -20 -20 -21 -41 33 c-23 19
-43 31 -46 28 -3 -2 8 -22 25 -44 35 -47 36 -48 10 -74 l-21 -21 -33 26 c-46
35 -51 31 -23 -18 l24 -44 -23 -28 c-22 -28 -23 -28 -50 -10 -30 19 -29 23 -9
-42 3 -10 0 -27 -8 -37 -13 -18 -15 -18 -38 -3 -36 26 -43 20 -22 -16 15 -25
17 -38 10 -55 -12 -27 -28 -28 -52 -2 -29 32 -37 12 -9 -25 25 -33 25 -34 8
-67 -9 -18 -18 -35 -20 -37 -2 -2 -22 13 -45 33 -22 21 -43 35 -46 32 -3 -3
11 -28 31 -56 41 -58 41 -58 20 -89 l-16 -23 -49 48 c-27 26 -51 45 -55 41 -4
-3 14 -34 40 -68 50 -68 52 -75 31 -103 -13 -17 -16 -16 -47 20 -53 62 -76 84
-88 84 -14 0 -8 -9 45 -80 58 -77 59 -78 40 -106 l-16 -25 -50 56 c-28 30 -55
55 -60 55 -5 0 11 -30 36 -66 49 -73 54 -93 27 -117 -17 -16 -20 -14 -53 29
-34 46 -69 74 -69 55 0 -5 4 -12 9 -16 6 -3 24 -30 41 -61 31 -53 31 -56 15
-75 -18 -19 -19 -18 -53 17 -44 45 -53 37 -18 -17 15 -22 26 -42 24 -43 -2 -1
-11 -8 -21 -15 -15 -12 -21 -11 -42 9 -31 29 -44 20 -21 -15 21 -32 15 -42
-48 -71 -68 -32 -86 -30 -126 11 -44 46 -57 45 -25 -2 31 -46 31 -53 1 -53
-23 0 -101 73 -124 117 -11 19 -7 22 41 38 166 53 308 188 437 416 115 201
220 348 389 544 130 149 190 231 237 320 21 41 41 75 44 75 3 0 22 -26 42 -58z
m-1396 -1349 c19 -20 34 -41 34 -46 0 -15 -41 16 -68 51 -34 45 -8 41 34 -5z
m109 -33 c40 -52 44 -75 9 -52 -13 8 -84 99 -84 107 0 3 6 5 14 5 8 0 36 -27
61 -60z m91 3 c59 -87 57 -83 36 -83 -16 0 -122 116 -122 134 0 3 11 6 24 6
17 0 33 -15 62 -57z"/>
<path d="M4975 4084 c-22 -2 -85 -11 -140 -19 -55 -9 -118 -18 -140 -21 -71
-9 -175 -36 -175 -45 0 -5 7 -9 16 -9 36 0 166 -73 221 -124 72 -66 91 -76
143 -76 55 0 95 18 182 83 95 71 156 101 248 121 149 34 145 29 50 60 -73 24
-105 28 -225 31 -77 2 -158 1 -180 -1z m90 -94 c-3 -5 -26 -22 -51 -36 -47
-27 -100 -28 -122 -1 -8 9 1 12 36 13 26 1 65 8 87 17 50 18 58 20 50 7z"/>
<path d="M5339 3936 c-70 -20 -137 -61 -209 -127 -35 -33 -95 -76 -133 -96
-88 -47 -108 -86 -171 -338 -26 -104 -69 -232 -151 -445 -62 -160 -65 -224
-18 -315 27 -53 54 -143 53 -178 0 -7 -18 24 -39 68 -21 44 -45 88 -53 99 -14
17 -17 16 -51 -30 -20 -27 -57 -73 -82 -102 -25 -30 -48 -67 -52 -83 -10 -49
-26 -47 -18 2 9 55 26 89 83 164 24 33 50 74 57 90 16 40 27 142 16 149 -5 3
-29 -10 -55 -30 -25 -19 -46 -31 -46 -27 0 14 30 55 71 98 44 47 69 100 132
285 92 270 117 423 82 506 -8 20 -34 59 -57 86 -23 28 -50 74 -59 102 -20 59
-54 88 -132 111 -39 12 -59 13 -90 4 -78 -21 -147 -85 -177 -163 -15 -40 -6
-43 32 -14 18 14 48 33 66 42 52 27 39 -1 -33 -67 -74 -68 -102 -124 -90 -183
17 -94 85 -222 129 -246 11 -6 55 -14 97 -18 53 -5 88 -14 113 -30 20 -12 36
-24 34 -25 -2 -2 -23 1 -48 5 -50 10 -174 13 -182 5 -3 -3 4 -36 14 -73 26
-87 35 -297 19 -384 -7 -35 -28 -97 -46 -138 -57 -128 -77 -199 -77 -276 0
-85 17 -123 72 -163 87 -63 230 -69 342 -13 152 75 336 301 354 436 12 82 -1
113 -78 189 -64 64 -98 116 -98 149 0 7 9 -1 19 -18 10 -17 52 -57 92 -90 48
-38 83 -76 99 -107 14 -26 28 -47 33 -47 4 0 67 80 139 178 72 97 155 202 183
232 112 118 144 177 113 208 -16 16 -111 15 -178 -3 -127 -34 -265 -7 -336 66
l-39 40 51 -25 c57 -29 154 -56 197 -56 16 0 68 9 116 21 67 16 104 20 167 16
75 -5 83 -4 102 16 83 91 119 305 68 412 -28 59 -76 108 -128 129 -45 19 -154
20 -219 2z m221 -170 c13 -6 35 -26 47 -45 26 -38 32 -69 7 -33 -8 12 -36 33
-62 46 -26 14 -56 31 -67 40 -19 15 -18 15 15 10 19 -4 46 -12 60 -18z m-210
0 c0 -2 -23 -21 -51 -41 -40 -28 -49 -39 -38 -46 20 -12 96 -11 121 2 15 8 19
8 14 0 -19 -30 -68 -43 -136 -36 -50 5 -83 2 -128 -10 -33 -10 -66 -15 -73
-13 -16 5 64 54 106 64 16 4 63 25 104 46 78 40 81 41 81 34z m-980 -89 c0 -2
-19 -21 -41 -42 -26 -25 -37 -32 -30 -18 13 25 71 74 71 60z m250 -78 c22 -12
38 -24 37 -26 -2 -1 -36 4 -77 13 -115 24 -152 51 -55 41 30 -3 73 -16 95 -28z
m876 -37 c-20 -39 -33 -48 -96 -65 -34 -10 -48 -11 -37 -4 11 7 47 31 80 53
34 23 63 42 65 43 1 0 -4 -12 -12 -27z m-1042 -132 c52 -22 61 -33 17 -20 -32
9 -71 28 -71 35 0 8 6 6 54 -15z m561 -265 c26 -55 43 -76 72 -92 21 -12 54
-38 73 -59 l35 -37 -41 29 c-22 16 -60 38 -83 48 -59 27 -68 15 -49 -64 18
-74 6 -79 -20 -7 -14 38 -18 68 -15 112 5 55 0 89 -22 150 -13 37 14 -6 50
-80z m-440 -83 c-7 -7 -55 39 -55 52 0 5 13 -3 30 -19 16 -16 28 -31 25 -33z
m725 48 c-20 -13 -103 -13 -95 0 3 6 30 10 58 10 37 0 48 -3 37 -10z m-410
-441 l0 -22 -24 24 c-25 26 -66 89 -66 103 0 4 20 -12 45 -37 26 -26 45 -55
45 -68z m-15 -212 c4 -15 5 -27 2 -27 -6 0 -47 87 -47 98 0 14 40 -48 45 -71z
m-261 -209 c-32 -16 -50 -19 -80 -13 l-39 8 55 12 c30 7 66 13 80 13 21 1 18
-3 -16 -20z"/>
<path d="M4730 3746 c0 -3 12 -24 26 -46 15 -22 35 -68 46 -103 l18 -62 -4 52
c-5 56 -32 117 -65 147 -12 11 -21 16 -21 12z"/>
<path d="M3244 4403 c-57 -61 -70 -83 -54 -93 8 -5 18 -6 22 -4 12 8 288 -248
294 -273 10 -37 32 -35 71 8 21 23 42 47 46 55 13 23 0 44 -26 44 -28 0 -275
228 -295 272 -6 15 -15 28 -18 28 -3 0 -21 -17 -40 -37z"/>
<path d="M3071 4194 c-36 -46 -23 -75 41 -83 38 -5 44 -10 53 -39 14 -49 30
-32 29 32 -2 70 -26 110 -71 114 -23 2 -36 -3 -52 -24z"/>
<path d="M6855 4193 c-10 -29 -298 -228 -335 -231 -24 -3 -31 -7 -27 -20 9
-36 158 -252 173 -252 20 0 104 49 104 61 0 5 -12 11 -27 14 -16 4 -35 10 -43
14 -16 8 -80 88 -80 99 0 4 24 23 53 44 l53 36 22 -34 c12 -18 22 -40 22 -48
0 -28 33 -27 69 2 41 33 50 52 24 52 -14 0 -63 57 -63 74 0 6 83 66 91 66 4 0
21 -23 39 -50 28 -43 32 -57 26 -90 -4 -27 -2 -40 5 -40 18 0 90 61 87 74 -2
7 -37 65 -78 129 -74 115 -101 139 -115 100z"/>
<path d="M2930 3940 c-32 -64 -32 -80 1 -80 33 0 334 -169 344 -193 6 -12 17
-22 25 -22 18 0 153 233 146 251 -6 15 -84 74 -98 74 -5 0 -6 -23 -2 -50 5
-38 2 -61 -11 -90 -10 -22 -19 -40 -21 -40 -2 0 -74 39 -160 87 -94 52 -159
94 -162 105 -8 34 -32 18 -62 -42z"/>
<path d="M6717 3430 c-51 -41 -92 -204 -103 -413 -8 -143 3 -193 48 -236 l31
-29 -18 -261 c-18 -260 -18 -262 1 -288 36 -48 106 -48 122 -1 5 13 6 289 3
614 -6 564 -7 593 -25 613 -24 26 -27 26 -59 1z"/>
<path d="M3106 3393 c-12 -76 -26 -260 -26 -341 0 -99 16 -143 69 -192 l39
-35 -8 -140 c-4 -77 -11 -213 -15 -302 -6 -155 -6 -162 14 -182 27 -27 73 -27
97 0 22 24 22 51 0 409 l-13 215 43 42 c64 63 75 111 64 265 -17 225 -28 298
-45 298 -16 0 -21 -44 -24 -225 -1 -82 -6 -154 -11 -159 -6 -5 -15 -4 -25 4
-12 10 -15 42 -15 184 0 172 -6 204 -32 193 -12 -4 -16 -41 -21 -187 -5 -176
-13 -218 -37 -194 -5 5 -12 88 -16 184 -3 96 -7 181 -9 188 -8 24 -23 11 -29
-25z"/>
<path d="M617 1104 c-31 -31 -36 -77 -11 -112 9 -13 40 -37 70 -54 31 -17 62
-41 71 -55 14 -22 14 -25 -2 -43 -35 -39 -98 -20 -121 36 -21 50 -34 41 -34
-24 l0 -58 83 -2 c77 -2 86 0 110 22 20 18 27 35 27 61 0 53 -13 70 -89 114
-69 41 -85 59 -75 86 17 43 97 22 116 -31 18 -50 28 -42 28 24 l0 57 -73 3
c-68 2 -76 1 -100 -24z"/>
<path d="M1531 1113 c-111 -55 -117 -244 -10 -307 38 -23 126 -21 166 4 38 23
59 58 45 72 -7 7 -14 3 -21 -11 -13 -24 -61 -51 -91 -51 -86 0 -137 115 -96
214 29 70 105 88 157 37 16 -16 29 -37 29 -45 0 -9 5 -16 10 -16 6 0 10 27 10
60 0 47 -3 60 -15 60 -8 0 -15 -4 -15 -10 0 -6 -9 -6 -26 0 -38 15 -105 12
-143 -7z"/>
<path d="M2097 1123 c-3 -4 -30 -69 -62 -143 -31 -74 -65 -142 -76 -152 -32
-28 -23 -38 36 -38 40 0 55 4 55 14 0 7 -9 16 -20 19 -18 5 -19 7 -6 39 13 31
17 33 70 36 56 3 57 3 71 -32 19 -44 19 -46 0 -46 -8 0 -15 -7 -15 -15 0 -13
12 -15 67 -13 69 3 89 16 51 33 -17 7 -39 49 -84 155 -57 134 -75 163 -87 143z
m7 -191 c-20 -2 -38 -1 -41 2 -3 3 3 26 13 51 l19 46 22 -48 23 -48 -36 -3z"/>
<path d="M2830 1101 c-54 -53 -36 -110 48 -158 88 -50 107 -76 76 -107 -36
-37 -124 1 -124 54 0 11 -7 20 -15 20 -12 0 -15 -13 -15 -58 l0 -58 83 -2 c77
-2 86 0 110 22 20 18 27 35 27 61 0 53 -13 70 -89 114 -69 41 -85 59 -75 86
17 43 97 22 116 -31 18 -50 28 -42 28 24 l0 57 -70 3 c-67 3 -73 1 -100 -27z"/>
<path d="M5102 1113 c-5 -10 -33 -74 -62 -143 -32 -75 -63 -134 -78 -147 -22
-18 -24 -23 -10 -28 24 -10 101 -1 105 11 2 6 -6 14 -17 17 -19 5 -20 8 -7 39
13 31 16 33 70 36 57 3 58 3 72 -32 19 -44 19 -46 0 -46 -8 0 -15 -7 -15 -15
0 -12 14 -15 65 -15 51 0 65 3 65 15 0 8 -6 15 -13 15 -17 0 -24 13 -91 175
-30 71 -59 131 -64 133 -6 2 -15 -5 -20 -15z m11 -181 c-19 -2 -37 -1 -40 2
-3 3 3 26 13 52 l18 48 22 -50 21 -49 -34 -3z"/>
<path d="M5512 1113 c-97 -48 -117 -194 -38 -281 30 -32 40 -36 93 -40 69 -5
110 11 142 57 29 41 8 51 -25 12 -71 -85 -194 -27 -194 91 0 89 43 148 107
148 37 0 93 -44 93 -74 0 -9 6 -16 14 -16 12 0 13 12 9 58 -7 65 -8 68 -25 55
-8 -6 -22 -7 -33 -2 -34 13 -108 9 -143 -8z"/>
<path d="M5886 1078 c-13 -29 -43 -97 -66 -152 -29 -65 -50 -100 -62 -104 -10
-2 -17 -10 -15 -16 5 -16 109 -14 115 2 2 7 -5 12 -17 12 -25 0 -25 1 -7 45
15 34 17 35 71 35 54 0 57 -1 70 -32 12 -29 12 -35 -1 -44 -30 -24 -14 -34 51
-34 50 0 65 3 65 14 0 8 -8 16 -17 18 -11 2 -38 53 -79 153 -34 82 -67 151
-73 153 -6 2 -22 -20 -35 -50z m54 -135 c0 -8 -14 -13 -35 -13 -40 0 -41 4
-18 62 l17 42 18 -39 c9 -22 18 -46 18 -52z"/>
<path d="M7757 1123 c-3 -4 -30 -69 -62 -143 -36 -86 -66 -143 -83 -157 -22
-18 -23 -23 -10 -28 24 -10 101 -1 105 11 2 6 -6 14 -17 17 -19 5 -20 8 -7 39
13 31 16 33 70 36 57 3 58 3 72 -32 19 -44 19 -46 0 -46 -8 0 -15 -7 -15 -15
0 -13 12 -15 67 -13 69 3 89 16 51 33 -17 7 -39 49 -85 155 -57 135 -74 163
-86 143z m7 -191 c-20 -2 -38 -1 -41 2 -3 3 3 26 13 52 l18 48 23 -50 23 -49
-36 -3z"/>
<path d="M8463 1113 c-36 -18 -47 -49 -13 -38 19 6 20 2 20 -124 0 -126 -1
-131 -21 -131 -12 0 -19 -5 -16 -12 2 -9 25 -13 67 -13 42 0 65 4 68 13 2 7
-5 12 -17 12 -20 0 -21 5 -21 155 0 172 1 171 -67 138z"/>
<path d="M8687 1109 c-35 -27 -52 -89 -37 -135 15 -45 50 -67 95 -62 19 2 35
2 35 0 0 -3 -9 -20 -21 -39 -21 -34 -64 -63 -94 -63 -8 0 -15 -4 -15 -10 0
-19 63 -10 106 15 50 29 90 90 100 153 8 53 -16 123 -51 146 -34 22 -87 20
-118 -5z m99 -44 c28 -67 14 -115 -32 -115 -30 0 -54 36 -54 78 0 47 16 72 46
72 19 0 28 -8 40 -35z"/>
<path d="M8935 1105 c-33 -32 -32 -75 0 -113 l25 -30 -25 -28 c-57 -61 -17
-144 70 -144 61 0 95 32 95 88 0 30 -7 45 -31 68 -29 28 -30 29 -11 44 46 38
50 96 9 125 -35 24 -104 19 -132 -10z m103 -17 c17 -17 15 -42 -7 -69 l-19
-24 -26 24 c-40 37 -29 81 19 81 12 0 26 -5 33 -12z m-9 -183 c35 -40 36 -45
19 -67 -48 -59 -115 13 -78 83 15 27 23 24 59 -16z"/>
<path d="M9248 1101 c-53 -34 -98 -113 -98 -173 0 -45 32 -113 59 -128 39 -20
91 -12 121 20 72 77 24 205 -71 186 -34 -7 -35 -3 -9 39 19 30 72 65 99 65 6
0 11 5 11 10 0 21 -67 9 -112 -19z m42 -146 c17 -21 24 -89 11 -114 -19 -35
-59 -28 -77 14 -17 42 -18 87 -2 103 16 16 53 15 68 -3z"/>
<path d="M850 1110 c0 -5 9 -10 20 -10 19 0 20 -7 20 -140 0 -133 -1 -140 -20
-140 -11 0 -20 -7 -20 -15 0 -12 14 -15 69 -15 74 0 99 14 57 30 -24 9 -26 15
-26 65 l0 55 50 0 c41 0 56 5 75 25 36 35 35 97 -1 130 -25 23 -35 25 -125 25
-59 0 -99 -4 -99 -10z m165 -34 c21 -15 25 -67 5 -90 -7 -9 -25 -16 -41 -16
-29 0 -29 1 -29 60 0 56 2 60 23 60 13 0 32 -6 42 -14z"/>
<path d="M1130 1110 c0 -5 9 -10 20 -10 19 0 20 -7 20 -140 0 -133 -1 -140
-20 -140 -11 0 -20 -7 -20 -15 0 -13 21 -15 129 -15 l128 0 13 45 c13 47 6 73
-11 43 -25 -45 -81 -67 -134 -54 -23 6 -25 11 -25 67 l0 60 48 -3 c38 -2 49
-7 57 -25 17 -39 25 -25 25 42 0 67 -8 81 -25 43 -8 -19 -18 -23 -55 -23 l-45
0 -3 53 -3 52 61 0 c55 0 61 -2 72 -25 17 -37 28 -31 28 15 l0 40 -130 0 c-80
0 -130 -4 -130 -10z"/>
<path d="M1770 1110 c0 -5 9 -10 19 -10 27 0 31 -18 31 -140 0 -122 -4 -140
-31 -140 -10 0 -19 -7 -19 -15 0 -12 15 -15 75 -15 60 0 75 3 75 15 0 8 -9 15
-19 15 -27 0 -31 18 -31 133 0 121 6 147 31 147 11 0 19 5 19 10 0 6 -32 10
-75 10 -43 0 -75 -4 -75 -10z"/>
<path d="M2300 1110 c0 -5 9 -10 19 -10 27 0 31 -18 31 -140 0 -122 -4 -140
-31 -140 -10 0 -19 -7 -19 -15 0 -13 21 -15 129 -15 l129 0 16 47 c18 51 7 82
-15 42 -20 -38 -40 -48 -95 -49 -38 0 -53 4 -58 16 -10 26 -7 214 4 235 6 10
20 19 30 19 11 0 20 5 20 10 0 6 -33 10 -80 10 -47 0 -80 -4 -80 -10z"/>
<path d="M2610 1110 c0 -5 9 -10 20 -10 19 0 20 -7 20 -140 0 -133 -1 -140
-20 -140 -11 0 -20 -7 -20 -15 0 -12 15 -15 75 -15 58 0 75 3 75 14 0 8 -10
16 -22 18 -22 3 -23 7 -26 118 -3 135 1 160 28 160 11 0 20 5 20 10 0 6 -32
10 -75 10 -43 0 -75 -4 -75 -10z"/>
<path d="M3068 1080 c-4 -44 11 -54 27 -17 7 15 20 23 43 25 l32 3 0 -135 c0
-129 -1 -136 -20 -136 -11 0 -20 -7 -20 -15 0 -12 14 -15 69 -15 74 0 99 14
57 30 l-26 10 0 130 0 131 38 -3 c27 -2 40 -9 47 -25 15 -35 25 -28 25 17 l0
40 -134 0 -134 0 -4 -40z"/>
<path d="M3370 1110 c0 -5 9 -10 20 -10 19 0 20 -7 20 -140 0 -133 -1 -140
-20 -140 -11 0 -20 -7 -20 -15 0 -12 14 -15 69 -15 74 0 99 14 56 30 l-26 10
3 132 c3 129 4 133 26 136 12 2 22 8 22 13 0 5 -34 9 -75 9 -43 0 -75 -4 -75
-10z"/>
<path d="M3670 1110 c0 -5 9 -10 19 -10 27 0 31 -18 31 -140 0 -122 -4 -140
-31 -140 -11 0 -19 -7 -19 -16 0 -15 13 -16 108 -12 123 5 161 20 199 78 29
42 31 130 5 179 -31 57 -70 71 -199 71 -69 0 -113 -4 -113 -10z m225 -53 c42
-42 53 -97 30 -155 -23 -57 -80 -89 -133 -75 -21 5 -22 10 -22 127 0 68 3 126
7 129 3 4 24 7 46 7 31 0 46 -7 72 -33z"/>
<path d="M4030 1111 c0 -5 10 -11 23 -13 22 -3 22 -6 22 -138 0 -132 0 -135
-22 -138 -13 -2 -23 -10 -23 -18 0 -11 24 -14 129 -14 l129 0 15 45 c18 50 6
69 -19 30 -19 -29 -81 -51 -118 -41 -24 6 -26 10 -26 67 l0 60 48 -3 c40 -3
47 -6 50 -25 7 -49 22 -20 22 42 0 67 -8 81 -25 43 -8 -18 -20 -24 -52 -26
l-43 -3 0 56 0 56 58 -3 c48 -3 59 -7 67 -25 15 -35 25 -28 25 17 l0 40 -130
0 c-74 0 -130 -4 -130 -9z"/>
<path d="M4340 1110 c0 -5 9 -10 20 -10 19 0 20 -7 20 -140 0 -133 -1 -140
-20 -140 -11 0 -20 -7 -20 -15 0 -13 21 -15 128 -15 l129 0 11 39 c21 69 15
80 -19 38 -30 -37 -33 -38 -88 -35 l-56 3 0 130 c0 127 0 130 23 133 12 2 22
8 22 13 0 5 -34 9 -75 9 -43 0 -75 -4 -75 -10z"/>
<path d="M4640 1115 c0 -3 11 -10 25 -15 25 -9 25 -10 25 -140 l0 -130 -27
-11 c-52 -20 -8 -30 117 -27 l123 3 14 40 c17 51 8 82 -13 43 -19 -37 -43 -48
-104 -48 l-51 0 3 133 c3 128 4 132 26 135 12 2 22 8 22 13 0 5 -36 9 -80 9
-44 0 -80 -2 -80 -5z"/>
<path d="M6110 1110 c0 -5 9 -10 20 -10 19 0 20 -7 20 -140 0 -133 -1 -140
-20 -140 -11 0 -20 -7 -20 -15 0 -12 14 -15 69 -15 74 0 99 14 57 30 -24 9
-26 15 -26 65 0 38 4 55 13 55 7 0 37 -33 66 -74 l53 -75 109 0 c108 0 143 10
95 29 -25 9 -26 12 -26 105 0 52 3 95 8 94 4 0 48 -50 97 -111 50 -61 96 -113
103 -116 9 -3 12 31 12 147 l0 151 25 10 c40 15 30 20 -40 20 -37 0 -65 -4
-65 -10 0 -5 9 -10 20 -10 26 0 32 -26 28 -120 l-3 -75 -89 108 -89 107 -48 0
c-56 0 -63 -10 -19 -27 l30 -11 0 -126 c0 -134 -2 -140 -52 -138 -35 1 -58 19
-103 81 l-33 45 34 31 c43 41 45 81 8 119 -25 25 -32 26 -130 26 -63 0 -104
-4 -104 -10z m174 -36 c35 -35 12 -90 -41 -100 l-33 -6 0 61 c0 61 0 61 29 61
16 0 37 -7 45 -16z"/>
<path d="M6800 1111 c0 -5 10 -11 23 -13 21 -3 22 -7 25 -136 l3 -132 -26 -10
c-52 -20 -13 -30 110 -30 l123 0 15 45 c19 53 7 67 -22 26 -22 -31 -81 -49
-121 -36 -17 5 -20 15 -20 66 l0 60 48 -3 c40 -3 47 -6 50 -25 7 -49 22 -20
22 42 0 67 -8 81 -25 43 -8 -18 -20 -24 -52 -26 l-43 -3 0 56 0 56 58 -3 c48
-3 59 -7 67 -25 15 -35 25 -28 25 17 l0 40 -130 0 c-74 0 -130 -4 -130 -9z"/>
<path d="M7240 1111 c0 -6 8 -11 19 -11 25 0 31 -26 31 -140 0 -114 -6 -140
-31 -140 -11 0 -19 -7 -19 -16 0 -26 203 -16 251 12 53 31 79 78 79 141 0 60
-15 95 -55 133 -25 23 -34 25 -151 28 -84 3 -124 0 -124 -7z m219 -47 c99 -83
23 -269 -98 -237 -20 5 -21 11 -21 127 0 68 3 126 7 129 17 17 83 6 112 -19z"/>
<path d="M7960 1110 c0 -5 9 -10 19 -10 27 0 31 -18 31 -140 0 -122 -4 -140
-31 -140 -10 0 -19 -7 -19 -15 0 -13 21 -15 130 -15 l129 0 14 48 c16 52 11
76 -9 46 -31 -46 -47 -54 -101 -54 -64 0 -65 2 -61 150 3 97 5 105 26 116 42
21 36 24 -46 24 -48 0 -82 -4 -82 -10z"/>
</g>
</svg>
